<?xml version="1.0" encoding="UTF-8" standalone="no"?>
<!DOCTYPE svg PUBLIC "-//W3C//DTD SVG 1.1//EN"
 "http://www.w3.org/Graphics/SVG/1.1/DTD/svg11.dtd">
<!-- Generated by graphviz version 11.0.0 (0)
 -->
<!-- Pages: 1 -->
<svg width="224pt" height="258pt"
 viewBox="0.00 0.00 223.62 257.60" xmlns="http://www.w3.org/2000/svg" xmlns:xlink="http://www.w3.org/1999/xlink">
<g id="graph0" class="graph" transform="scale(1 1) rotate(0) translate(4 253.6)">
<polygon fill="white" stroke="none" points="-4,4 -4,-253.6 219.62,-253.6 219.62,4 -4,4"/>
<!-- S, V(x), V(x) -->
<g id="node1" class="node">
<title>S, V(x), V(x)</title>
<path fill="none" stroke="black" d="M180.62,-249.6C180.62,-249.6 116.62,-249.6 116.62,-249.6 110.62,-249.6 104.62,-243.6 104.62,-237.6 104.62,-237.6 104.62,-225.6 104.62,-225.6 104.62,-219.6 110.62,-213.6 116.62,-213.6 116.62,-213.6 180.62,-213.6 180.62,-213.6 186.62,-213.6 192.62,-219.6 192.62,-225.6 192.62,-225.6 192.62,-237.6 192.62,-237.6 192.62,-243.6 186.62,-249.6 180.62,-249.6"/>
<text text-anchor="middle" x="148.62" y="-226.55" font-family="Times,serif" font-size="14.00">S, V(x), V(x)</text>
</g>
<!-- org.parser.sppf.PackedNode@279ad2e3 -->
<g id="node2" class="node">
<title>org.parser.sppf.PackedNode@279ad2e3</title>
<polygon fill="none" stroke="black" points="93.22,-199.6 86.03,-199.6 86.03,-192.4 93.22,-192.4 93.22,-199.6"/>
</g>
<!-- S, V(x), V(x)&#45;&gt;org.parser.sppf.PackedNode@279ad2e3 -->
<g id="edge9" class="edge">
<title>S, V(x), V(x)&#45;&gt;org.parser.sppf.PackedNode@279ad2e3</title>
<path fill="none" stroke="black" d="M118.09,-213.21C112.19,-209.85 106.35,-206.53 101.51,-203.77"/>
<polygon fill="black" stroke="black" points="102.81,-201.49 95,-200.06 100.22,-206.05 102.81,-201.49"/>
</g>
<!-- org.parser.sppf.PackedNode@58134517 -->
<g id="node4" class="node">
<title>org.parser.sppf.PackedNode@58134517</title>
<polygon fill="none" stroke="black" points="152.22,-199.6 145.03,-199.6 145.03,-192.4 152.22,-192.4 152.22,-199.6"/>
</g>
<!-- S, V(x), V(x)&#45;&gt;org.parser.sppf.PackedNode@58134517 -->
<g id="edge10" class="edge">
<title>S, V(x), V(x)&#45;&gt;org.parser.sppf.PackedNode@58134517</title>
<path fill="none" stroke="black" d="M148.62,-213.41C148.62,-211.79 148.62,-210.18 148.62,-208.64"/>
<polygon fill="black" stroke="black" points="151.25,-209.02 148.63,-201.52 146,-209.02 151.25,-209.02"/>
</g>
<!-- ε, V(x) -->
<g id="node3" class="node">
<title>ε, V(x)</title>
<polygon fill="none" stroke="black" points="87.25,-178.4 0,-178.4 0,-142.4 87.25,-142.4 87.25,-178.4"/>
<text text-anchor="middle" x="43.62" y="-155.35" font-family="Times,serif" font-size="14.00">ε, V(x), V(x)</text>
</g>
<!-- org.parser.sppf.PackedNode@279ad2e3&#45;&gt;ε, V(x) -->
<g id="edge1" class="edge">
<title>org.parser.sppf.PackedNode@279ad2e3&#45;&gt;ε, V(x)</title>
<path fill="none" stroke="black" d="M85.7,-192.14C82.97,-190.14 79.03,-187.26 74.64,-184.06"/>
<polygon fill="black" stroke="black" points="76.33,-182.04 68.72,-179.73 73.23,-186.28 76.33,-182.04"/>
</g>
<!-- S a x, V(x), V(x) -->
<g id="node5" class="node">
<title>S a x, V(x), V(x)</title>
<path fill="none" stroke="black" d="M190.75,-178.4C190.75,-178.4 106.5,-178.4 106.5,-178.4 100.5,-178.4 94.5,-172.4 94.5,-166.4 94.5,-166.4 94.5,-154.4 94.5,-154.4 94.5,-148.4 100.5,-142.4 106.5,-142.4 106.5,-142.4 190.75,-142.4 190.75,-142.4 196.75,-142.4 202.75,-148.4 202.75,-154.4 202.75,-154.4 202.75,-166.4 202.75,-166.4 202.75,-172.4 196.75,-178.4 190.75,-178.4"/>
<text text-anchor="middle" x="148.62" y="-155.35" font-family="Times,serif" font-size="14.00">S a x, V(x), V(x)</text>
</g>
<!-- org.parser.sppf.PackedNode@58134517&#45;&gt;S a x, V(x), V(x) -->
<g id="edge8" class="edge">
<title>org.parser.sppf.PackedNode@58134517&#45;&gt;S a x, V(x), V(x)</title>
<path fill="none" stroke="black" d="M148.62,-192.36C148.62,-191.13 148.62,-189.53 148.62,-187.71"/>
<polygon fill="black" stroke="black" points="151.25,-187.77 148.63,-180.27 146,-187.77 151.25,-187.77"/>
</g>
<!-- org.parser.sppf.PackedNode@4450d156 -->
<g id="node6" class="node">
<title>org.parser.sppf.PackedNode@4450d156</title>
<polygon fill="none" stroke="black" points="152.22,-128.4 145.03,-128.4 145.03,-121.2 152.22,-121.2 152.22,-128.4"/>
</g>
<!-- S a x, V(x), V(x)&#45;&gt;org.parser.sppf.PackedNode@4450d156 -->
<g id="edge7" class="edge">
<title>S a x, V(x), V(x)&#45;&gt;org.parser.sppf.PackedNode@4450d156</title>
<path fill="none" stroke="black" d="M148.62,-142.21C148.62,-140.59 148.62,-138.98 148.62,-137.44"/>
<polygon fill="black" stroke="black" points="151.25,-137.82 148.63,-130.32 146,-137.82 151.25,-137.82"/>
</g>
<!-- S a, V(x), E(a) -->
<g id="node7" class="node">
<title>S a, V(x), E(a)</title>
<path fill="none" stroke="black" d="M97.75,-107.2C97.75,-107.2 25.5,-107.2 25.5,-107.2 19.5,-107.2 13.5,-101.2 13.5,-95.2 13.5,-95.2 13.5,-83.2 13.5,-83.2 13.5,-77.2 19.5,-71.2 25.5,-71.2 25.5,-71.2 97.75,-71.2 97.75,-71.2 103.75,-71.2 109.75,-77.2 109.75,-83.2 109.75,-83.2 109.75,-95.2 109.75,-95.2 109.75,-101.2 103.75,-107.2 97.75,-107.2"/>
<text text-anchor="middle" x="61.62" y="-84.15" font-family="Times,serif" font-size="14.00">S a, V(x), E(a)</text>
</g>
<!-- org.parser.sppf.PackedNode@4450d156&#45;&gt;S a, V(x), E(a) -->
<g id="edge5" class="edge">
<title>org.parser.sppf.PackedNode@4450d156&#45;&gt;S a, V(x), E(a)</title>
<path fill="none" stroke="black" d="M144.89,-122.36C139.18,-120.15 127.59,-115.68 114.83,-110.75"/>
<polygon fill="black" stroke="black" points="116.14,-108.44 108.19,-108.19 114.24,-113.34 116.14,-108.44"/>
</g>
<!-- V(x), E(a), V(x) -->
<g id="node10" class="node">
<title>V(x), E(a), V(x)</title>
<polygon fill="none" stroke="black" points="202.5,-107.2 116.75,-107.2 116.75,-71.2 202.5,-71.2 202.5,-107.2"/>
<text text-anchor="middle" x="159.62" y="-84.15" font-family="Times,serif" font-size="14.00">x, E(a), V(x)</text>
</g>
<!-- org.parser.sppf.PackedNode@4450d156&#45;&gt;V(x), E(a), V(x) -->
<g id="edge6" class="edge">
<title>org.parser.sppf.PackedNode@4450d156&#45;&gt;V(x), E(a), V(x)</title>
<path fill="none" stroke="black" d="M149.49,-121.16C149.92,-119.84 150.5,-118.09 151.15,-116.09"/>
<polygon fill="black" stroke="black" points="153.63,-116.94 153.47,-109 148.64,-115.31 153.63,-116.94"/>
</g>
<!-- org.parser.sppf.PackedNode@4461c7e3 -->
<g id="node8" class="node">
<title>org.parser.sppf.PackedNode@4461c7e3</title>
<polygon fill="none" stroke="black" points="141.22,-57.2 134.03,-57.2 134.03,-50 141.22,-50 141.22,-57.2"/>
</g>
<!-- S a, V(x), E(a)&#45;&gt;org.parser.sppf.PackedNode@4461c7e3 -->
<g id="edge4" class="edge">
<title>S a, V(x), E(a)&#45;&gt;org.parser.sppf.PackedNode@4461c7e3</title>
<path fill="none" stroke="black" d="M100.96,-70.81C109.92,-66.85 118.77,-62.93 125.54,-59.94"/>
<polygon fill="black" stroke="black" points="126.54,-62.37 132.33,-56.94 124.41,-57.57 126.54,-62.37"/>
</g>
<!-- org.parser.sppf.PackedNode@4461c7e3&#45;&gt;S, V(x), V(x) -->
<g id="edge2" class="edge">
<title>org.parser.sppf.PackedNode@4461c7e3&#45;&gt;S, V(x), V(x)</title>
<path fill="none" stroke="black" d="M141.42,-54.22C153.01,-53.28 188.23,-52.19 205.62,-71.2 221.59,-88.64 213.62,-100.15 213.62,-123.8 213.62,-161.4 213.62,-161.4 213.62,-161.4 213.62,-180.24 200.67,-196.05 186.32,-207.78"/>
<polygon fill="black" stroke="black" points="184.79,-205.65 180.42,-212.29 187.98,-209.82 184.79,-205.65"/>
</g>
<!-- E(a), V(x), E(a) -->
<g id="node9" class="node">
<title>E(a), V(x), E(a)</title>
<polygon fill="none" stroke="black" points="180.12,-36 95.12,-36 95.12,0 180.12,0 180.12,-36"/>
<text text-anchor="middle" x="137.62" y="-12.95" font-family="Times,serif" font-size="14.00">a, V(x), E(a)</text>
</g>
<!-- org.parser.sppf.PackedNode@4461c7e3&#45;&gt;E(a), V(x), E(a) -->
<g id="edge3" class="edge">
<title>org.parser.sppf.PackedNode@4461c7e3&#45;&gt;E(a), V(x), E(a)</title>
<path fill="none" stroke="black" d="M137.62,-49.96C137.62,-48.73 137.62,-47.13 137.62,-45.31"/>
<polygon fill="black" stroke="black" points="140.25,-45.37 137.63,-37.87 135,-45.37 140.25,-45.37"/>
</g>
</g>
</svg>
